<?xml version="1.0" encoding="UTF-8"?>
<svg xmlns="http://www.w3.org/2000/svg" xmlns:xlink="http://www.w3.org/1999/xlink" width="24pt" height="24pt" viewBox="0 0 375 374.999991" version="1.2">
<g id="surface1">
<rect x="0" y="0" width="375" height="374.999991" style="fill:rgb(100%,100%,100%);fill-opacity:1;stroke:none;"/>
<rect x="0" y="0" width="375" height="374.999991" style="fill:rgb(100%,100%,100%);fill-opacity:1;stroke:none;"/>
<rect x="0" y="0" width="375" height="374.999991" style="fill:rgb(95.689392%,81.17981%,81.17981%);fill-opacity:1;stroke:none;"/>
<path style=" stroke:none;fill-rule:nonzero;fill:rgb(0%,0%,0%);fill-opacity:1;" d="M 180.660156 305.835938 C 175.441406 299.871094 172.863281 290.824219 173.867188 282.121094 C 174.894531 272.03125 182.855469 264.082031 180.660156 253.171875 C 179.574219 229.410156 171.71875 208.828125 178.726562 187.140625 C 186.121094 156.601562 210.816406 147.324219 228.679688 132.835938 C 232.9375 131.382812 236.085938 128.414062 238.933594 124.921875 C 242.273438 122.328125 245.175781 119.128906 247.425781 116.046875 C 249.996094 108.285156 248.648438 98.625 252.742188 91.027344 C 255.597656 86.136719 257.992188 80.742188 262.121094 76.867188 C 280.789062 72.3125 279.246094 53.691406 286.070312 51.234375 C 295.785156 48.566406 289.289062 68.460938 293.644531 74.5625 C 301.160156 74.875 306.464844 79.003906 310.367188 84.214844 C 312.699219 89.492188 320.316406 88.964844 321.636719 94.167969 C 322.761719 98.90625 319.039062 105.019531 315.488281 108.699219 C 312.367188 112.164062 307.777344 112.75 305.457031 116.808594 C 301.847656 124.839844 306.671875 135.855469 306.972656 144.875 C 306.492188 154.332031 307.769531 164.828125 302.046875 172.449219 C 301.1875 178.605469 295.453125 181.367188 293.421875 187.027344 C 288.757812 194.988281 281.386719 208.972656 281.683594 218.484375 C 281.777344 233.328125 287.355469 251.007812 289.609375 265.648438 C 294.921875 268.246094 305.976562 265.539062 304.367188 271.949219 C 297.289062 283.632812 255.875 281.625 247.921875 282.335938 C 231.386719 281.914062 214.390625 282.945312 198.253906 280.402344 C 188.707031 277.460938 187.058594 285.097656 189.4375 293.230469 C 191.71875 297.5 194.878906 301.003906 199.148438 303.535156 C 206.429688 306.242188 214.023438 309.617188 222.515625 309.398438 C 231.65625 310.859375 239.320312 309.695312 248.964844 308.707031 C 254.839844 305.476562 279.695312 306.605469 266.425781 313.722656 C 239.585938 325.699219 192.925781 323.269531 180.660156 305.835938 Z M 180.660156 305.835938 "/>
<path style=" stroke:none;fill-rule:nonzero;fill:rgb(62.348938%,36.468506%,42.749023%);fill-opacity:1;" d="M 190.453125 288.648438 C 235.699219 292.203125 234.988281 269.457031 234.988281 269.457031 C 265.074219 250.5 242.332031 213.773438 242.332031 213.773438 C 246.832031 171.597656 238.542969 155.484375 238.542969 155.484375 C 242.332031 122.074219 232.144531 113.542969 232.144531 113.542969 C 221.722656 73.5 206.089844 72.789062 206.089844 72.789062 C 203.71875 68.523438 197.796875 64.496094 192.824219 62.839844 C 187.847656 61.179688 188.558594 72.078125 188.558594 72.078125 C 165.34375 59.046875 164.160156 62.839844 164.160156 62.839844 C 167.003906 65.207031 171.265625 80.371094 171.265625 80.371094 C 159.660156 91.035156 160.84375 116.863281 160.84375 116.863281 C 168.1875 126.339844 172.449219 126.578125 172.449219 126.578125 C 172.449219 126.578125 167.003906 142.214844 169.609375 152.402344 C 169.609375 152.402344 119.863281 226.804688 149.945312 279.171875 C 149.945312 279.171875 120.574219 306.894531 92.144531 296.941406 C 63.71875 286.988281 92.144531 238.652344 92.144531 238.652344 C 92.144531 238.652344 95.273438 227.328125 84.09375 235.335938 C 65.613281 248.605469 53.058594 311.539062 83.003906 315.566406 C 166.246094 326.796875 174.394531 287.367188 190.453125 288.648438 Z M 190.453125 288.648438 "/>
</g>
</svg>
